<mxfile host="app.diagrams.net" modified="2021-11-30T09:30:53.011Z" agent="5.0 (Macintosh; Intel Mac OS X 10_15_5) AppleWebKit/537.36 (KHTML, like Gecko) Chrome/81.0.4044.138 Safari/537.36" etag="wtuICSrov-woFBFK_sBF" version="15.8.6" type="github">
  <diagram id="NvEv5xaT72A0xeevjUX6" name="Page-1">
    <mxGraphModel dx="1977" dy="1385" grid="0" gridSize="10" guides="1" tooltips="1" connect="1" arrows="1" fold="1" page="0" pageScale="1" pageWidth="827" pageHeight="1169" math="0" shadow="0">
      <root>
        <mxCell id="0" />
        <mxCell id="1" parent="0" />
        <mxCell id="xxYR3Yal_5X2FMV1pGKi-15" value="" style="edgeStyle=orthogonalEdgeStyle;rounded=0;orthogonalLoop=1;jettySize=auto;html=1;" edge="1" parent="1" source="xxYR3Yal_5X2FMV1pGKi-3" target="xxYR3Yal_5X2FMV1pGKi-14">
          <mxGeometry relative="1" as="geometry" />
        </mxCell>
        <mxCell id="xxYR3Yal_5X2FMV1pGKi-20" value="命中" style="edgeLabel;html=1;align=center;verticalAlign=middle;resizable=0;points=[];" vertex="1" connectable="0" parent="xxYR3Yal_5X2FMV1pGKi-15">
          <mxGeometry x="-0.1294" y="-1" relative="1" as="geometry">
            <mxPoint as="offset" />
          </mxGeometry>
        </mxCell>
        <mxCell id="xxYR3Yal_5X2FMV1pGKi-43" value="" style="edgeStyle=orthogonalEdgeStyle;rounded=0;orthogonalLoop=1;jettySize=auto;html=1;entryX=0;entryY=0.5;entryDx=0;entryDy=0;" edge="1" parent="1" source="xxYR3Yal_5X2FMV1pGKi-3" target="xxYR3Yal_5X2FMV1pGKi-68">
          <mxGeometry relative="1" as="geometry">
            <mxPoint x="750" y="365" as="targetPoint" />
          </mxGeometry>
        </mxCell>
        <mxCell id="xxYR3Yal_5X2FMV1pGKi-44" value="未命中" style="edgeLabel;html=1;align=center;verticalAlign=middle;resizable=0;points=[];" vertex="1" connectable="0" parent="xxYR3Yal_5X2FMV1pGKi-43">
          <mxGeometry x="0.1143" y="3" relative="1" as="geometry">
            <mxPoint y="1" as="offset" />
          </mxGeometry>
        </mxCell>
        <mxCell id="xxYR3Yal_5X2FMV1pGKi-3" value="&lt;span style=&quot;font-size: 11px ; background-color: rgb(255 , 255 , 255)&quot;&gt;local cache&lt;/span&gt;" style="rhombus;whiteSpace=wrap;html=1;" vertex="1" parent="1">
          <mxGeometry x="500" y="336.25" width="180" height="70" as="geometry" />
        </mxCell>
        <mxCell id="xxYR3Yal_5X2FMV1pGKi-70" value="" style="edgeStyle=orthogonalEdgeStyle;rounded=0;orthogonalLoop=1;jettySize=auto;html=1;" edge="1" parent="1" source="xxYR3Yal_5X2FMV1pGKi-5">
          <mxGeometry relative="1" as="geometry">
            <mxPoint x="590" y="286" as="targetPoint" />
          </mxGeometry>
        </mxCell>
        <mxCell id="xxYR3Yal_5X2FMV1pGKi-72" value="读" style="edgeLabel;html=1;align=center;verticalAlign=middle;resizable=0;points=[];" vertex="1" connectable="0" parent="xxYR3Yal_5X2FMV1pGKi-70">
          <mxGeometry x="-0.4182" relative="1" as="geometry">
            <mxPoint as="offset" />
          </mxGeometry>
        </mxCell>
        <mxCell id="xxYR3Yal_5X2FMV1pGKi-5" value="request" style="rounded=1;whiteSpace=wrap;html=1;" vertex="1" parent="1">
          <mxGeometry x="545" y="163" width="90" height="45" as="geometry" />
        </mxCell>
        <mxCell id="xxYR3Yal_5X2FMV1pGKi-49" value="" style="edgeStyle=orthogonalEdgeStyle;rounded=0;orthogonalLoop=1;jettySize=auto;html=1;" edge="1" parent="1" source="xxYR3Yal_5X2FMV1pGKi-12" target="xxYR3Yal_5X2FMV1pGKi-48">
          <mxGeometry relative="1" as="geometry" />
        </mxCell>
        <mxCell id="xxYR3Yal_5X2FMV1pGKi-102" value="结果" style="edgeLabel;html=1;align=center;verticalAlign=middle;resizable=0;points=[];" vertex="1" connectable="0" parent="xxYR3Yal_5X2FMV1pGKi-49">
          <mxGeometry x="0.1" y="1" relative="1" as="geometry">
            <mxPoint as="offset" />
          </mxGeometry>
        </mxCell>
        <mxCell id="xxYR3Yal_5X2FMV1pGKi-12" value="渲染" style="rounded=1;whiteSpace=wrap;html=1;" vertex="1" parent="1">
          <mxGeometry x="290" y="575" width="90" height="45" as="geometry" />
        </mxCell>
        <mxCell id="xxYR3Yal_5X2FMV1pGKi-18" value="" style="edgeStyle=orthogonalEdgeStyle;rounded=0;orthogonalLoop=1;jettySize=auto;html=1;" edge="1" parent="1" source="xxYR3Yal_5X2FMV1pGKi-14">
          <mxGeometry relative="1" as="geometry">
            <mxPoint x="590" y="562.5" as="targetPoint" />
          </mxGeometry>
        </mxCell>
        <mxCell id="xxYR3Yal_5X2FMV1pGKi-19" value="是" style="edgeLabel;html=1;align=center;verticalAlign=middle;resizable=0;points=[];" vertex="1" connectable="0" parent="xxYR3Yal_5X2FMV1pGKi-18">
          <mxGeometry x="-0.25" y="2" relative="1" as="geometry">
            <mxPoint as="offset" />
          </mxGeometry>
        </mxCell>
        <mxCell id="xxYR3Yal_5X2FMV1pGKi-21" value="" style="edgeStyle=orthogonalEdgeStyle;rounded=0;orthogonalLoop=1;jettySize=auto;html=1;" edge="1" parent="1" source="xxYR3Yal_5X2FMV1pGKi-14">
          <mxGeometry relative="1" as="geometry">
            <mxPoint x="590" y="562.5" as="targetPoint" />
          </mxGeometry>
        </mxCell>
        <mxCell id="xxYR3Yal_5X2FMV1pGKi-46" value="过期或key不存在" style="edgeLabel;html=1;align=center;verticalAlign=middle;resizable=0;points=[];" vertex="1" connectable="0" parent="xxYR3Yal_5X2FMV1pGKi-21">
          <mxGeometry x="-0.32" y="4" relative="1" as="geometry">
            <mxPoint as="offset" />
          </mxGeometry>
        </mxCell>
        <mxCell id="xxYR3Yal_5X2FMV1pGKi-104" value="" style="edgeStyle=orthogonalEdgeStyle;rounded=0;orthogonalLoop=1;jettySize=auto;html=1;" edge="1" parent="1" source="xxYR3Yal_5X2FMV1pGKi-14">
          <mxGeometry relative="1" as="geometry">
            <mxPoint x="451" y="482.5" as="targetPoint" />
          </mxGeometry>
        </mxCell>
        <mxCell id="xxYR3Yal_5X2FMV1pGKi-113" value="未过期" style="edgeLabel;html=1;align=center;verticalAlign=middle;resizable=0;points=[];" vertex="1" connectable="0" parent="xxYR3Yal_5X2FMV1pGKi-104">
          <mxGeometry x="0.0204" relative="1" as="geometry">
            <mxPoint as="offset" />
          </mxGeometry>
        </mxCell>
        <mxCell id="xxYR3Yal_5X2FMV1pGKi-14" value="&lt;span style=&quot;font-size: 11px ; background-color: rgb(255 , 255 , 255)&quot;&gt;TTL检测&lt;/span&gt;" style="rhombus;whiteSpace=wrap;html=1;" vertex="1" parent="1">
          <mxGeometry x="500" y="442.5" width="180" height="80" as="geometry" />
        </mxCell>
        <mxCell id="xxYR3Yal_5X2FMV1pGKi-25" value="" style="edgeStyle=orthogonalEdgeStyle;rounded=0;orthogonalLoop=1;jettySize=auto;html=1;" edge="1" parent="1" source="xxYR3Yal_5X2FMV1pGKi-22">
          <mxGeometry relative="1" as="geometry">
            <mxPoint x="590" y="681" as="targetPoint" />
          </mxGeometry>
        </mxCell>
        <mxCell id="xxYR3Yal_5X2FMV1pGKi-26" value="成功" style="edgeLabel;html=1;align=center;verticalAlign=middle;resizable=0;points=[];" vertex="1" connectable="0" parent="xxYR3Yal_5X2FMV1pGKi-25">
          <mxGeometry x="-0.5" y="-3" relative="1" as="geometry">
            <mxPoint as="offset" />
          </mxGeometry>
        </mxCell>
        <mxCell id="xxYR3Yal_5X2FMV1pGKi-47" value="" style="edgeStyle=orthogonalEdgeStyle;rounded=0;orthogonalLoop=1;jettySize=auto;html=1;" edge="1" parent="1" source="xxYR3Yal_5X2FMV1pGKi-22" target="xxYR3Yal_5X2FMV1pGKi-12">
          <mxGeometry relative="1" as="geometry" />
        </mxCell>
        <mxCell id="xxYR3Yal_5X2FMV1pGKi-53" value="失败" style="edgeLabel;html=1;align=center;verticalAlign=middle;resizable=0;points=[];" vertex="1" connectable="0" parent="xxYR3Yal_5X2FMV1pGKi-47">
          <mxGeometry x="-0.1333" relative="1" as="geometry">
            <mxPoint as="offset" />
          </mxGeometry>
        </mxCell>
        <mxCell id="xxYR3Yal_5X2FMV1pGKi-22" value="&lt;span style=&quot;font-size: 11px ; background-color: rgb(255 , 255 , 255)&quot;&gt;获取令牌&lt;/span&gt;" style="rhombus;whiteSpace=wrap;html=1;" vertex="1" parent="1">
          <mxGeometry x="500" y="562.5" width="180" height="70" as="geometry" />
        </mxCell>
        <mxCell id="xxYR3Yal_5X2FMV1pGKi-48" value="response" style="rounded=1;whiteSpace=wrap;html=1;" vertex="1" parent="1">
          <mxGeometry x="120" y="575" width="90" height="45" as="geometry" />
        </mxCell>
        <mxCell id="xxYR3Yal_5X2FMV1pGKi-50" value="" style="endArrow=classic;html=1;rounded=0;entryX=1;entryY=0.5;entryDx=0;entryDy=0;exitX=0.5;exitY=1;exitDx=0;exitDy=0;" edge="1" parent="1" source="xxYR3Yal_5X2FMV1pGKi-68" target="xxYR3Yal_5X2FMV1pGKi-14">
          <mxGeometry width="50" height="50" relative="1" as="geometry">
            <mxPoint x="840" y="400" as="sourcePoint" />
            <mxPoint x="890" y="350" as="targetPoint" />
            <Array as="points">
              <mxPoint x="820" y="483" />
            </Array>
          </mxGeometry>
        </mxCell>
        <mxCell id="xxYR3Yal_5X2FMV1pGKi-51" value="key存在且value不为空" style="edgeLabel;html=1;align=center;verticalAlign=middle;resizable=0;points=[];" vertex="1" connectable="0" parent="xxYR3Yal_5X2FMV1pGKi-50">
          <mxGeometry x="-0.7263" y="-1" relative="1" as="geometry">
            <mxPoint as="offset" />
          </mxGeometry>
        </mxCell>
        <mxCell id="xxYR3Yal_5X2FMV1pGKi-90" value="" style="edgeStyle=orthogonalEdgeStyle;rounded=0;orthogonalLoop=1;jettySize=auto;html=1;" edge="1" parent="1" source="xxYR3Yal_5X2FMV1pGKi-64" target="xxYR3Yal_5X2FMV1pGKi-218">
          <mxGeometry relative="1" as="geometry">
            <mxPoint x="456" y="700" as="targetPoint" />
          </mxGeometry>
        </mxCell>
        <mxCell id="xxYR3Yal_5X2FMV1pGKi-91" value="成功" style="edgeLabel;html=1;align=center;verticalAlign=middle;resizable=0;points=[];" vertex="1" connectable="0" parent="xxYR3Yal_5X2FMV1pGKi-90">
          <mxGeometry x="-0.2" y="-3" relative="1" as="geometry">
            <mxPoint as="offset" />
          </mxGeometry>
        </mxCell>
        <mxCell id="xxYR3Yal_5X2FMV1pGKi-64" value="请求上游" style="rhombus;whiteSpace=wrap;html=1;" vertex="1" parent="1">
          <mxGeometry x="505" y="684.75" width="170" height="60" as="geometry" />
        </mxCell>
        <mxCell id="xxYR3Yal_5X2FMV1pGKi-68" value="tair" style="rhombus;whiteSpace=wrap;html=1;" vertex="1" parent="1">
          <mxGeometry x="760" y="332.5" width="120" height="77.5" as="geometry" />
        </mxCell>
        <mxCell id="xxYR3Yal_5X2FMV1pGKi-81" value="" style="endArrow=classic;html=1;rounded=0;entryX=1;entryY=0.5;entryDx=0;entryDy=0;" edge="1" parent="1" target="xxYR3Yal_5X2FMV1pGKi-22">
          <mxGeometry width="50" height="50" relative="1" as="geometry">
            <mxPoint x="880" y="370" as="sourcePoint" />
            <mxPoint x="730" y="700" as="targetPoint" />
            <Array as="points">
              <mxPoint x="940" y="370" />
              <mxPoint x="940" y="598" />
            </Array>
          </mxGeometry>
        </mxCell>
        <mxCell id="xxYR3Yal_5X2FMV1pGKi-82" value="key 不存在或value为空" style="edgeLabel;html=1;align=center;verticalAlign=middle;resizable=0;points=[];" vertex="1" connectable="0" parent="xxYR3Yal_5X2FMV1pGKi-81">
          <mxGeometry x="-0.3679" y="-1" relative="1" as="geometry">
            <mxPoint as="offset" />
          </mxGeometry>
        </mxCell>
        <mxCell id="xxYR3Yal_5X2FMV1pGKi-95" value="" style="endArrow=classic;html=1;rounded=0;entryX=0.5;entryY=1;entryDx=0;entryDy=0;exitX=0.5;exitY=0.983;exitDx=0;exitDy=0;exitPerimeter=0;" edge="1" parent="1" source="xxYR3Yal_5X2FMV1pGKi-64" target="xxYR3Yal_5X2FMV1pGKi-48">
          <mxGeometry width="50" height="50" relative="1" as="geometry">
            <mxPoint x="590" y="748" as="sourcePoint" />
            <mxPoint x="640" y="680" as="targetPoint" />
            <Array as="points">
              <mxPoint x="590" y="769" />
              <mxPoint x="165" y="769" />
            </Array>
          </mxGeometry>
        </mxCell>
        <mxCell id="xxYR3Yal_5X2FMV1pGKi-96" value="失败" style="edgeLabel;html=1;align=center;verticalAlign=middle;resizable=0;points=[];" vertex="1" connectable="0" parent="xxYR3Yal_5X2FMV1pGKi-95">
          <mxGeometry x="-0.0991" relative="1" as="geometry">
            <mxPoint as="offset" />
          </mxGeometry>
        </mxCell>
        <mxCell id="xxYR3Yal_5X2FMV1pGKi-109" value="" style="edgeStyle=orthogonalEdgeStyle;rounded=0;orthogonalLoop=1;jettySize=auto;html=1;" edge="1" parent="1" source="xxYR3Yal_5X2FMV1pGKi-105" target="xxYR3Yal_5X2FMV1pGKi-108">
          <mxGeometry relative="1" as="geometry" />
        </mxCell>
        <mxCell id="xxYR3Yal_5X2FMV1pGKi-112" value="是" style="edgeLabel;html=1;align=center;verticalAlign=middle;resizable=0;points=[];" vertex="1" connectable="0" parent="xxYR3Yal_5X2FMV1pGKi-109">
          <mxGeometry x="0.2741" relative="1" as="geometry">
            <mxPoint as="offset" />
          </mxGeometry>
        </mxCell>
        <mxCell id="xxYR3Yal_5X2FMV1pGKi-105" value="tair 命中" style="rhombus;whiteSpace=wrap;html=1;" vertex="1" parent="1">
          <mxGeometry x="371" y="452.75" width="80" height="59.5" as="geometry" />
        </mxCell>
        <mxCell id="xxYR3Yal_5X2FMV1pGKi-106" value="" style="endArrow=classic;html=1;rounded=0;entryX=0.5;entryY=0;entryDx=0;entryDy=0;" edge="1" parent="1" target="xxYR3Yal_5X2FMV1pGKi-12">
          <mxGeometry width="50" height="50" relative="1" as="geometry">
            <mxPoint x="371" y="484" as="sourcePoint" />
            <mxPoint x="421" y="434" as="targetPoint" />
            <Array as="points">
              <mxPoint x="335" y="484" />
            </Array>
          </mxGeometry>
        </mxCell>
        <mxCell id="xxYR3Yal_5X2FMV1pGKi-107" value="否" style="edgeLabel;html=1;align=center;verticalAlign=middle;resizable=0;points=[];" vertex="1" connectable="0" parent="xxYR3Yal_5X2FMV1pGKi-106">
          <mxGeometry x="0.2126" y="-1" relative="1" as="geometry">
            <mxPoint as="offset" />
          </mxGeometry>
        </mxCell>
        <mxCell id="xxYR3Yal_5X2FMV1pGKi-108" value="更新lc" style="rounded=1;whiteSpace=wrap;html=1;" vertex="1" parent="1">
          <mxGeometry x="383" y="540" width="56" height="26.5" as="geometry" />
        </mxCell>
        <mxCell id="xxYR3Yal_5X2FMV1pGKi-110" value="" style="endArrow=classic;html=1;rounded=0;" edge="1" parent="1">
          <mxGeometry width="50" height="50" relative="1" as="geometry">
            <mxPoint x="383" y="552" as="sourcePoint" />
            <mxPoint x="334" y="552" as="targetPoint" />
          </mxGeometry>
        </mxCell>
        <mxCell id="xxYR3Yal_5X2FMV1pGKi-118" value="" style="edgeStyle=orthogonalEdgeStyle;rounded=0;orthogonalLoop=1;jettySize=auto;html=1;" edge="1" parent="1" source="xxYR3Yal_5X2FMV1pGKi-114" target="xxYR3Yal_5X2FMV1pGKi-116">
          <mxGeometry relative="1" as="geometry" />
        </mxCell>
        <mxCell id="xxYR3Yal_5X2FMV1pGKi-119" value="不存在" style="edgeLabel;html=1;align=center;verticalAlign=middle;resizable=0;points=[];" vertex="1" connectable="0" parent="xxYR3Yal_5X2FMV1pGKi-118">
          <mxGeometry x="0.0233" y="-4" relative="1" as="geometry">
            <mxPoint as="offset" />
          </mxGeometry>
        </mxCell>
        <mxCell id="xxYR3Yal_5X2FMV1pGKi-120" value="" style="edgeStyle=orthogonalEdgeStyle;rounded=0;orthogonalLoop=1;jettySize=auto;html=1;" edge="1" parent="1" source="xxYR3Yal_5X2FMV1pGKi-114" target="xxYR3Yal_5X2FMV1pGKi-3">
          <mxGeometry relative="1" as="geometry" />
        </mxCell>
        <mxCell id="xxYR3Yal_5X2FMV1pGKi-121" value="存在" style="edgeLabel;html=1;align=center;verticalAlign=middle;resizable=0;points=[];" vertex="1" connectable="0" parent="xxYR3Yal_5X2FMV1pGKi-120">
          <mxGeometry x="-0.3672" y="-2" relative="1" as="geometry">
            <mxPoint as="offset" />
          </mxGeometry>
        </mxCell>
        <mxCell id="xxYR3Yal_5X2FMV1pGKi-114" value="meta key" style="rhombus;whiteSpace=wrap;html=1;" vertex="1" parent="1">
          <mxGeometry x="534" y="252" width="112" height="40" as="geometry" />
        </mxCell>
        <mxCell id="xxYR3Yal_5X2FMV1pGKi-116" value="请求上游" style="rounded=1;whiteSpace=wrap;html=1;" vertex="1" parent="1">
          <mxGeometry x="369" y="249.5" width="90" height="45" as="geometry" />
        </mxCell>
        <mxCell id="xxYR3Yal_5X2FMV1pGKi-117" value="" style="endArrow=classic;html=1;rounded=0;entryX=0.25;entryY=0;entryDx=0;entryDy=0;" edge="1" parent="1" target="xxYR3Yal_5X2FMV1pGKi-12">
          <mxGeometry width="50" height="50" relative="1" as="geometry">
            <mxPoint x="367" y="272" as="sourcePoint" />
            <mxPoint x="300" y="272" as="targetPoint" />
            <Array as="points">
              <mxPoint x="313" y="272" />
            </Array>
          </mxGeometry>
        </mxCell>
        <mxCell id="xxYR3Yal_5X2FMV1pGKi-123" value="&lt;div style=&quot;text-align: left&quot;&gt;&lt;span&gt;CacheService&lt;/span&gt;&lt;/div&gt;&lt;div style=&quot;text-align: left&quot;&gt;方法 :&amp;nbsp;&lt;/div&gt;&lt;div style=&quot;text-align: left&quot;&gt;&lt;span&gt;+&amp;nbsp;virtual bool get(const K &amp;amp;key, V &amp;amp;value)&lt;/span&gt;&lt;/div&gt;&lt;div style=&quot;text-align: left&quot;&gt;&lt;span&gt;+&amp;nbsp;virtual bool set(const K &amp;amp;key, V &amp;amp;value)&lt;/span&gt;&lt;/div&gt;&lt;div style=&quot;text-align: left&quot;&gt;&lt;span&gt;virtual bool load(const std::unordered_map&amp;lt;K, V&amp;gt; &amp;amp;data)&lt;/span&gt;&lt;/div&gt;&lt;div style=&quot;text-align: left&quot;&gt;属性 :&amp;nbsp;&lt;/div&gt;&lt;div style=&quot;text-align: left&quot;&gt;std::unordered_map&amp;lt;K, V&amp;gt; _m_hsmap_cache;&lt;/div&gt;" style="rounded=1;whiteSpace=wrap;html=1;" vertex="1" parent="1">
          <mxGeometry x="40" y="961" width="188" height="205" as="geometry" />
        </mxCell>
        <mxCell id="xxYR3Yal_5X2FMV1pGKi-124" value="KeyGenerate&lt;br&gt;+ virtual bool generate(std::string &amp;amp;key);&lt;br&gt;" style="rounded=1;whiteSpace=wrap;html=1;" vertex="1" parent="1">
          <mxGeometry x="237" y="963" width="235" height="64" as="geometry" />
        </mxCell>
        <mxCell id="xxYR3Yal_5X2FMV1pGKi-126" value="" style="edgeStyle=orthogonalEdgeStyle;rounded=0;orthogonalLoop=1;jettySize=auto;html=1;" edge="1" parent="1" source="xxYR3Yal_5X2FMV1pGKi-125" target="xxYR3Yal_5X2FMV1pGKi-124">
          <mxGeometry relative="1" as="geometry" />
        </mxCell>
        <mxCell id="xxYR3Yal_5X2FMV1pGKi-127" value="继承" style="edgeLabel;html=1;align=center;verticalAlign=middle;resizable=0;points=[];" vertex="1" connectable="0" parent="xxYR3Yal_5X2FMV1pGKi-126">
          <mxGeometry x="-0.0385" relative="1" as="geometry">
            <mxPoint x="1" as="offset" />
          </mxGeometry>
        </mxCell>
        <mxCell id="xxYR3Yal_5X2FMV1pGKi-125" value="SpCacheKeyGenerate" style="rounded=1;whiteSpace=wrap;html=1;" vertex="1" parent="1">
          <mxGeometry x="278" y="1071" width="153" height="40" as="geometry" />
        </mxCell>
        <mxCell id="xxYR3Yal_5X2FMV1pGKi-130" value="" style="edgeStyle=orthogonalEdgeStyle;rounded=0;orthogonalLoop=1;jettySize=auto;html=1;" edge="1" parent="1" source="xxYR3Yal_5X2FMV1pGKi-129">
          <mxGeometry relative="1" as="geometry">
            <mxPoint x="748.1428571428573" y="967.5" as="targetPoint" />
          </mxGeometry>
        </mxCell>
        <mxCell id="xxYR3Yal_5X2FMV1pGKi-131" value="继承" style="edgeLabel;html=1;align=center;verticalAlign=middle;resizable=0;points=[];" vertex="1" connectable="0" parent="xxYR3Yal_5X2FMV1pGKi-130">
          <mxGeometry x="0.1803" relative="1" as="geometry">
            <mxPoint as="offset" />
          </mxGeometry>
        </mxCell>
        <mxCell id="xxYR3Yal_5X2FMV1pGKi-129" value="SpCacheService&lt;br&gt;&lt;div&gt;bool get(const std::string &amp;amp;key, std::string &amp;amp;value);&amp;nbsp;&lt;/div&gt;&lt;div&gt;bool set(const std::string &amp;amp;key, std::string &amp;amp;value);&amp;nbsp;&lt;/div&gt;&lt;div&gt;bool update_expire_time(const std::string &amp;amp;key, uint64_t expire_time);&amp;nbsp;&lt;/div&gt;&lt;div&gt;bool is_expire(const std::string &amp;amp;key);&amp;nbsp;&lt;/div&gt;&lt;div&gt;virtual bool load(const std::unordered_map&amp;lt;std::string, std::strting&amp;gt; &amp;amp;data);&lt;/div&gt;" style="rounded=1;whiteSpace=wrap;html=1;align=left;" vertex="1" parent="1">
          <mxGeometry x="627" y="1016.5" width="223" height="6" as="geometry" />
        </mxCell>
        <mxCell id="xxYR3Yal_5X2FMV1pGKi-132" value="" style="rounded=1;whiteSpace=wrap;html=1;" vertex="1" parent="1">
          <mxGeometry x="267" y="1140" width="120" height="60" as="geometry" />
        </mxCell>
        <mxCell id="xxYR3Yal_5X2FMV1pGKi-133" value="CacheService&#xa;" style="swimlane;fontStyle=1;align=center;verticalAlign=top;childLayout=stackLayout;horizontal=1;startSize=26;horizontalStack=0;resizeParent=1;resizeParentMax=0;resizeLast=0;collapsible=1;marginBottom=0;" vertex="1" parent="1">
          <mxGeometry x="931" y="1449" width="443" height="194" as="geometry" />
        </mxCell>
        <mxCell id="xxYR3Yal_5X2FMV1pGKi-135" value="" style="line;strokeWidth=1;fillColor=none;align=left;verticalAlign=middle;spacingTop=-1;spacingLeft=3;spacingRight=3;rotatable=0;labelPosition=right;points=[];portConstraint=eastwest;" vertex="1" parent="xxYR3Yal_5X2FMV1pGKi-133">
          <mxGeometry y="26" width="443" height="8" as="geometry" />
        </mxCell>
        <mxCell id="xxYR3Yal_5X2FMV1pGKi-136" value="+  virtual bool get(const K &amp;key, V &amp;value)&#xa;&#xa;&#xa;" style="text;strokeColor=none;fillColor=none;align=left;verticalAlign=top;spacingLeft=4;spacingRight=4;overflow=hidden;rotatable=0;points=[[0,0.5],[1,0.5]];portConstraint=eastwest;" vertex="1" parent="xxYR3Yal_5X2FMV1pGKi-133">
          <mxGeometry y="34" width="443" height="32" as="geometry" />
        </mxCell>
        <mxCell id="xxYR3Yal_5X2FMV1pGKi-139" value="+ virtual bool set(const K &amp;key, V &amp;value)" style="text;strokeColor=none;fillColor=none;align=left;verticalAlign=top;spacingLeft=4;spacingRight=4;overflow=hidden;rotatable=0;points=[[0,0.5],[1,0.5]];portConstraint=eastwest;" vertex="1" parent="xxYR3Yal_5X2FMV1pGKi-133">
          <mxGeometry y="66" width="443" height="32" as="geometry" />
        </mxCell>
        <mxCell id="xxYR3Yal_5X2FMV1pGKi-140" value="+ virtual bool load(const std::unordered_map&lt;K, V&gt; &amp;data)" style="text;strokeColor=none;fillColor=none;align=left;verticalAlign=top;spacingLeft=4;spacingRight=4;overflow=hidden;rotatable=0;points=[[0,0.5],[1,0.5]];portConstraint=eastwest;" vertex="1" parent="xxYR3Yal_5X2FMV1pGKi-133">
          <mxGeometry y="98" width="443" height="32" as="geometry" />
        </mxCell>
        <mxCell id="xxYR3Yal_5X2FMV1pGKi-215" value="+ bool is_expire(const std::string &amp;key); " style="text;strokeColor=none;fillColor=none;align=left;verticalAlign=top;spacingLeft=4;spacingRight=4;overflow=hidden;rotatable=0;points=[[0,0.5],[1,0.5]];portConstraint=eastwest;" vertex="1" parent="xxYR3Yal_5X2FMV1pGKi-133">
          <mxGeometry y="130" width="443" height="32" as="geometry" />
        </mxCell>
        <mxCell id="xxYR3Yal_5X2FMV1pGKi-216" value="+ bool update_expire_time(const std::string &amp;key, const uint64_t expire_time); " style="text;strokeColor=none;fillColor=none;align=left;verticalAlign=top;spacingLeft=4;spacingRight=4;overflow=hidden;rotatable=0;points=[[0,0.5],[1,0.5]];portConstraint=eastwest;" vertex="1" parent="xxYR3Yal_5X2FMV1pGKi-133">
          <mxGeometry y="162" width="443" height="32" as="geometry" />
        </mxCell>
        <mxCell id="xxYR3Yal_5X2FMV1pGKi-142" value="SpCacheService" style="swimlane;fontStyle=1;align=center;verticalAlign=top;childLayout=stackLayout;horizontal=1;startSize=26;horizontalStack=0;resizeParent=1;resizeParentMax=0;resizeLast=0;collapsible=1;marginBottom=0;" vertex="1" parent="1">
          <mxGeometry x="896" y="1762" width="438" height="264" as="geometry" />
        </mxCell>
        <mxCell id="xxYR3Yal_5X2FMV1pGKi-143" value="+ std::unordered_map&lt;std::string, std::string&gt; _m_hsmap_expire_time" style="text;strokeColor=none;fillColor=none;align=left;verticalAlign=top;spacingLeft=4;spacingRight=4;overflow=hidden;rotatable=0;points=[[0,0.5],[1,0.5]];portConstraint=eastwest;" vertex="1" parent="xxYR3Yal_5X2FMV1pGKi-142">
          <mxGeometry y="26" width="438" height="26" as="geometry" />
        </mxCell>
        <mxCell id="xxYR3Yal_5X2FMV1pGKi-210" value="+ std::unordered_map&lt;K, V&gt; _m_hsmap_cache;" style="text;strokeColor=none;fillColor=none;align=left;verticalAlign=top;spacingLeft=4;spacingRight=4;overflow=hidden;rotatable=0;points=[[0,0.5],[1,0.5]];portConstraint=eastwest;" vertex="1" parent="xxYR3Yal_5X2FMV1pGKi-142">
          <mxGeometry y="52" width="438" height="26" as="geometry" />
        </mxCell>
        <mxCell id="xxYR3Yal_5X2FMV1pGKi-144" value="" style="line;strokeWidth=1;fillColor=none;align=left;verticalAlign=middle;spacingTop=-1;spacingLeft=3;spacingRight=3;rotatable=0;labelPosition=right;points=[];portConstraint=eastwest;" vertex="1" parent="xxYR3Yal_5X2FMV1pGKi-142">
          <mxGeometry y="78" width="438" height="8" as="geometry" />
        </mxCell>
        <mxCell id="xxYR3Yal_5X2FMV1pGKi-145" value="+ bool get(const std::string &amp;key, std::string &amp;value); " style="text;strokeColor=none;fillColor=none;align=left;verticalAlign=top;spacingLeft=4;spacingRight=4;overflow=hidden;rotatable=0;points=[[0,0.5],[1,0.5]];portConstraint=eastwest;" vertex="1" parent="xxYR3Yal_5X2FMV1pGKi-142">
          <mxGeometry y="86" width="438" height="35" as="geometry" />
        </mxCell>
        <mxCell id="xxYR3Yal_5X2FMV1pGKi-151" value="+ bool set(const std::string &amp;key, std::string &amp;value); " style="text;strokeColor=none;fillColor=none;align=left;verticalAlign=top;spacingLeft=4;spacingRight=4;overflow=hidden;rotatable=0;points=[[0,0.5],[1,0.5]];portConstraint=eastwest;" vertex="1" parent="xxYR3Yal_5X2FMV1pGKi-142">
          <mxGeometry y="121" width="438" height="35" as="geometry" />
        </mxCell>
        <mxCell id="xxYR3Yal_5X2FMV1pGKi-150" value="+ bool update_expire_time(const std::string &amp;key, const uint64_t expire_time); " style="text;strokeColor=none;fillColor=none;align=left;verticalAlign=top;spacingLeft=4;spacingRight=4;overflow=hidden;rotatable=0;points=[[0,0.5],[1,0.5]];portConstraint=eastwest;" vertex="1" parent="xxYR3Yal_5X2FMV1pGKi-142">
          <mxGeometry y="156" width="438" height="35" as="geometry" />
        </mxCell>
        <mxCell id="xxYR3Yal_5X2FMV1pGKi-149" value="+ bool is_expire(const std::string &amp;key); " style="text;strokeColor=none;fillColor=none;align=left;verticalAlign=top;spacingLeft=4;spacingRight=4;overflow=hidden;rotatable=0;points=[[0,0.5],[1,0.5]];portConstraint=eastwest;" vertex="1" parent="xxYR3Yal_5X2FMV1pGKi-142">
          <mxGeometry y="191" width="438" height="36" as="geometry" />
        </mxCell>
        <mxCell id="xxYR3Yal_5X2FMV1pGKi-153" value="+ virtual bool load(const std::unordered_map&lt;std::string, std::string&gt; &amp;data)" style="text;strokeColor=none;fillColor=none;align=left;verticalAlign=top;spacingLeft=4;spacingRight=4;overflow=hidden;rotatable=0;points=[[0,0.5],[1,0.5]];portConstraint=eastwest;" vertex="1" parent="xxYR3Yal_5X2FMV1pGKi-142">
          <mxGeometry y="227" width="438" height="37" as="geometry" />
        </mxCell>
        <mxCell id="xxYR3Yal_5X2FMV1pGKi-147" value="Extends" style="endArrow=block;endSize=16;endFill=0;html=1;rounded=0;entryX=0.438;entryY=0.969;entryDx=0;entryDy=0;entryPerimeter=0;" edge="1" parent="1" target="xxYR3Yal_5X2FMV1pGKi-216">
          <mxGeometry width="160" relative="1" as="geometry">
            <mxPoint x="1125" y="1760" as="sourcePoint" />
            <mxPoint x="1125" y="1646" as="targetPoint" />
          </mxGeometry>
        </mxCell>
        <mxCell id="xxYR3Yal_5X2FMV1pGKi-158" value="SpCacheHelper" style="swimlane;fontStyle=1;align=center;verticalAlign=top;childLayout=stackLayout;horizontal=1;startSize=26;horizontalStack=0;resizeParent=1;resizeParentMax=0;resizeLast=0;collapsible=1;marginBottom=0;" vertex="1" parent="1">
          <mxGeometry x="-126" y="1665" width="315" height="190" as="geometry" />
        </mxCell>
        <mxCell id="xxYR3Yal_5X2FMV1pGKi-160" value="" style="line;strokeWidth=1;fillColor=none;align=left;verticalAlign=middle;spacingTop=-1;spacingLeft=3;spacingRight=3;rotatable=0;labelPosition=right;points=[];portConstraint=eastwest;" vertex="1" parent="xxYR3Yal_5X2FMV1pGKi-158">
          <mxGeometry y="26" width="315" height="8" as="geometry" />
        </mxCell>
        <mxCell id="xxYR3Yal_5X2FMV1pGKi-161" value="+ static bool generate(SPQuery *query, std::string &amp;key);" style="text;strokeColor=none;fillColor=none;align=left;verticalAlign=top;spacingLeft=4;spacingRight=4;overflow=hidden;rotatable=0;points=[[0,0.5],[1,0.5]];portConstraint=eastwest;" vertex="1" parent="xxYR3Yal_5X2FMV1pGKi-158">
          <mxGeometry y="34" width="315" height="26" as="geometry" />
        </mxCell>
        <mxCell id="xxYR3Yal_5X2FMV1pGKi-164" value="+ static void increse_cache_hit();&#xa;" style="text;strokeColor=none;fillColor=none;align=left;verticalAlign=top;spacingLeft=4;spacingRight=4;overflow=hidden;rotatable=0;points=[[0,0.5],[1,0.5]];portConstraint=eastwest;" vertex="1" parent="xxYR3Yal_5X2FMV1pGKi-158">
          <mxGeometry y="60" width="315" height="26" as="geometry" />
        </mxCell>
        <mxCell id="xxYR3Yal_5X2FMV1pGKi-167" value="+ static void increse_cache_breakdown();" style="text;strokeColor=none;fillColor=none;align=left;verticalAlign=top;spacingLeft=4;spacingRight=4;overflow=hidden;rotatable=0;points=[[0,0.5],[1,0.5]];portConstraint=eastwest;" vertex="1" parent="xxYR3Yal_5X2FMV1pGKi-158">
          <mxGeometry y="86" width="315" height="26" as="geometry" />
        </mxCell>
        <mxCell id="xxYR3Yal_5X2FMV1pGKi-166" value="+ static void increse_total_request();" style="text;strokeColor=none;fillColor=none;align=left;verticalAlign=top;spacingLeft=4;spacingRight=4;overflow=hidden;rotatable=0;points=[[0,0.5],[1,0.5]];portConstraint=eastwest;" vertex="1" parent="xxYR3Yal_5X2FMV1pGKi-158">
          <mxGeometry y="112" width="315" height="26" as="geometry" />
        </mxCell>
        <mxCell id="xxYR3Yal_5X2FMV1pGKi-165" value="+ static void increse_token_request();&#xa;" style="text;strokeColor=none;fillColor=none;align=left;verticalAlign=top;spacingLeft=4;spacingRight=4;overflow=hidden;rotatable=0;points=[[0,0.5],[1,0.5]];portConstraint=eastwest;" vertex="1" parent="xxYR3Yal_5X2FMV1pGKi-158">
          <mxGeometry y="138" width="315" height="26" as="geometry" />
        </mxCell>
        <mxCell id="xxYR3Yal_5X2FMV1pGKi-178" value="+ static void output_statistics_info();" style="text;strokeColor=none;fillColor=none;align=left;verticalAlign=top;spacingLeft=4;spacingRight=4;overflow=hidden;rotatable=0;points=[[0,0.5],[1,0.5]];portConstraint=eastwest;fontColor=#000000;" vertex="1" parent="xxYR3Yal_5X2FMV1pGKi-158">
          <mxGeometry y="164" width="315" height="26" as="geometry" />
        </mxCell>
        <mxCell id="xxYR3Yal_5X2FMV1pGKi-170" value="" style="endArrow=diamondThin;endFill=1;endSize=24;html=1;rounded=0;entryX=0;entryY=0.5;entryDx=0;entryDy=0;" edge="1" parent="1" target="xxYR3Yal_5X2FMV1pGKi-201">
          <mxGeometry width="160" relative="1" as="geometry">
            <mxPoint x="189" y="1751.5" as="sourcePoint" />
            <mxPoint x="337" y="1777.5" as="targetPoint" />
          </mxGeometry>
        </mxCell>
        <mxCell id="xxYR3Yal_5X2FMV1pGKi-171" value="DataServiceHeloer" style="swimlane;fontStyle=1;align=center;verticalAlign=top;childLayout=stackLayout;horizontal=1;startSize=26;horizontalStack=0;resizeParent=1;resizeParentMax=0;resizeLast=0;collapsible=1;marginBottom=0;" vertex="1" parent="1">
          <mxGeometry x="-148" y="1968" width="456" height="115" as="geometry" />
        </mxCell>
        <mxCell id="xxYR3Yal_5X2FMV1pGKi-173" value="" style="line;strokeWidth=1;fillColor=none;align=left;verticalAlign=middle;spacingTop=-1;spacingLeft=3;spacingRight=3;rotatable=0;labelPosition=right;points=[];portConstraint=eastwest;" vertex="1" parent="xxYR3Yal_5X2FMV1pGKi-171">
          <mxGeometry y="26" width="456" height="8" as="geometry" />
        </mxCell>
        <mxCell id="xxYR3Yal_5X2FMV1pGKi-174" value="+ static bool get(const std::string &amp;key, std::string &amp;value);" style="text;strokeColor=none;fillColor=none;align=left;verticalAlign=top;spacingLeft=4;spacingRight=4;overflow=hidden;rotatable=0;points=[[0,0.5],[1,0.5]];portConstraint=eastwest;" vertex="1" parent="xxYR3Yal_5X2FMV1pGKi-171">
          <mxGeometry y="34" width="456" height="27" as="geometry" />
        </mxCell>
        <mxCell id="xxYR3Yal_5X2FMV1pGKi-175" value="+ static bool set(const std::string &amp;key, std::string &amp;value);" style="text;strokeColor=none;fillColor=none;align=left;verticalAlign=top;spacingLeft=4;spacingRight=4;overflow=hidden;rotatable=0;points=[[0,0.5],[1,0.5]];portConstraint=eastwest;" vertex="1" parent="xxYR3Yal_5X2FMV1pGKi-171">
          <mxGeometry y="61" width="456" height="27" as="geometry" />
        </mxCell>
        <mxCell id="xxYR3Yal_5X2FMV1pGKi-209" value="+ static bool is_expire(std::string &amp;value); " style="text;strokeColor=none;fillColor=none;align=left;verticalAlign=top;spacingLeft=4;spacingRight=4;overflow=hidden;rotatable=0;points=[[0,0.5],[1,0.5]];portConstraint=eastwest;" vertex="1" parent="xxYR3Yal_5X2FMV1pGKi-171">
          <mxGeometry y="88" width="456" height="27" as="geometry" />
        </mxCell>
        <mxCell id="xxYR3Yal_5X2FMV1pGKi-194" value="CacheStrategy" style="swimlane;fontStyle=1;align=center;verticalAlign=top;childLayout=stackLayout;horizontal=1;startSize=26;horizontalStack=0;resizeParent=1;resizeParentMax=0;resizeLast=0;collapsible=1;marginBottom=0;fontColor=#000000;" vertex="1" parent="1">
          <mxGeometry x="333" y="1603" width="390" height="82" as="geometry" />
        </mxCell>
        <mxCell id="xxYR3Yal_5X2FMV1pGKi-196" value="" style="line;strokeWidth=1;fillColor=none;align=left;verticalAlign=middle;spacingTop=-1;spacingLeft=3;spacingRight=3;rotatable=0;labelPosition=right;points=[];portConstraint=eastwest;fontColor=#000000;" vertex="1" parent="xxYR3Yal_5X2FMV1pGKi-194">
          <mxGeometry y="26" width="390" height="8" as="geometry" />
        </mxCell>
        <mxCell id="xxYR3Yal_5X2FMV1pGKi-197" value="+ virtual bool get(const std::string &amp;key, std::string &amp;value)&#xa;" style="text;strokeColor=none;fillColor=none;align=left;verticalAlign=top;spacingLeft=4;spacingRight=4;overflow=hidden;rotatable=0;points=[[0,0.5],[1,0.5]];portConstraint=eastwest;fontColor=#000000;" vertex="1" parent="xxYR3Yal_5X2FMV1pGKi-194">
          <mxGeometry y="34" width="390" height="24" as="geometry" />
        </mxCell>
        <mxCell id="xxYR3Yal_5X2FMV1pGKi-202" value="+ virtual bool update(const std::string &amp;key, const std::string &amp;value);" style="text;strokeColor=none;fillColor=none;align=left;verticalAlign=top;spacingLeft=4;spacingRight=4;overflow=hidden;rotatable=0;points=[[0,0.5],[1,0.5]];portConstraint=eastwest;fontColor=#000000;" vertex="1" parent="xxYR3Yal_5X2FMV1pGKi-194">
          <mxGeometry y="58" width="390" height="24" as="geometry" />
        </mxCell>
        <mxCell id="xxYR3Yal_5X2FMV1pGKi-198" value="SpCacheStrategy" style="swimlane;fontStyle=1;align=center;verticalAlign=top;childLayout=stackLayout;horizontal=1;startSize=26;horizontalStack=0;resizeParent=1;resizeParentMax=0;resizeLast=0;collapsible=1;marginBottom=0;fontColor=#000000;" vertex="1" parent="1">
          <mxGeometry x="262" y="1757" width="532" height="116" as="geometry" />
        </mxCell>
        <mxCell id="xxYR3Yal_5X2FMV1pGKi-200" value="" style="line;strokeWidth=1;fillColor=none;align=left;verticalAlign=middle;spacingTop=-1;spacingLeft=3;spacingRight=3;rotatable=0;labelPosition=right;points=[];portConstraint=eastwest;fontColor=#000000;" vertex="1" parent="xxYR3Yal_5X2FMV1pGKi-198">
          <mxGeometry y="26" width="532" height="8" as="geometry" />
        </mxCell>
        <mxCell id="xxYR3Yal_5X2FMV1pGKi-201" value="+ virtual bool get(const std::string &amp;key, std::string &amp;value);&#xa;" style="text;strokeColor=none;fillColor=none;align=left;verticalAlign=top;spacingLeft=4;spacingRight=4;overflow=hidden;rotatable=0;points=[[0,0.5],[1,0.5]];portConstraint=eastwest;fontColor=#000000;" vertex="1" parent="xxYR3Yal_5X2FMV1pGKi-198">
          <mxGeometry y="34" width="532" height="26" as="geometry" />
        </mxCell>
        <mxCell id="xxYR3Yal_5X2FMV1pGKi-205" value="+ virtual bool update_tair(const std::string &amp;key, const std::string &amp;value);" style="text;strokeColor=none;fillColor=none;align=left;verticalAlign=top;spacingLeft=4;spacingRight=4;overflow=hidden;rotatable=0;points=[[0,0.5],[1,0.5]];portConstraint=eastwest;fontColor=#000000;" vertex="1" parent="xxYR3Yal_5X2FMV1pGKi-198">
          <mxGeometry y="60" width="532" height="28" as="geometry" />
        </mxCell>
        <mxCell id="xxYR3Yal_5X2FMV1pGKi-208" value="+ virtual bool update_lc(const std::string &amp;key,  const std::string &amp;value, const uint64_t expire_time);" style="text;strokeColor=none;fillColor=none;align=left;verticalAlign=top;spacingLeft=4;spacingRight=4;overflow=hidden;rotatable=0;points=[[0,0.5],[1,0.5]];portConstraint=eastwest;fontColor=#000000;" vertex="1" parent="xxYR3Yal_5X2FMV1pGKi-198">
          <mxGeometry y="88" width="532" height="28" as="geometry" />
        </mxCell>
        <mxCell id="xxYR3Yal_5X2FMV1pGKi-204" value="Extends" style="endArrow=block;endSize=16;endFill=0;html=1;rounded=0;exitX=0.5;exitY=0;exitDx=0;exitDy=0;" edge="1" parent="1" source="xxYR3Yal_5X2FMV1pGKi-198">
          <mxGeometry width="160" relative="1" as="geometry">
            <mxPoint x="518" y="1765" as="sourcePoint" />
            <mxPoint x="528" y="1685" as="targetPoint" />
          </mxGeometry>
        </mxCell>
        <mxCell id="xxYR3Yal_5X2FMV1pGKi-206" value="" style="endArrow=diamondThin;endFill=1;endSize=24;html=1;rounded=0;fontColor=#000000;entryX=0.458;entryY=0.964;entryDx=0;entryDy=0;entryPerimeter=0;" edge="1" parent="1" target="xxYR3Yal_5X2FMV1pGKi-208">
          <mxGeometry width="160" relative="1" as="geometry">
            <mxPoint x="598" y="1987" as="sourcePoint" />
            <mxPoint x="758" y="1987" as="targetPoint" />
          </mxGeometry>
        </mxCell>
        <mxCell id="xxYR3Yal_5X2FMV1pGKi-214" value="" style="endArrow=diamondThin;endFill=1;endSize=24;html=1;rounded=0;fontColor=#000000;" edge="1" parent="1" target="xxYR3Yal_5X2FMV1pGKi-208">
          <mxGeometry width="160" relative="1" as="geometry">
            <mxPoint x="64" y="1968" as="sourcePoint" />
            <mxPoint x="224" y="1968" as="targetPoint" />
          </mxGeometry>
        </mxCell>
        <mxCell id="xxYR3Yal_5X2FMV1pGKi-207" value="" style="endArrow=diamondThin;endFill=1;endSize=24;html=1;rounded=0;fontColor=#000000;entryX=1;entryY=0.5;entryDx=0;entryDy=0;exitX=0;exitY=0.5;exitDx=0;exitDy=0;" edge="1" parent="1" source="xxYR3Yal_5X2FMV1pGKi-151" target="xxYR3Yal_5X2FMV1pGKi-205">
          <mxGeometry width="160" relative="1" as="geometry">
            <mxPoint x="1089" y="1757" as="sourcePoint" />
            <mxPoint x="981" y="1792" as="targetPoint" />
          </mxGeometry>
        </mxCell>
        <mxCell id="xxYR3Yal_5X2FMV1pGKi-221" value="" style="edgeStyle=orthogonalEdgeStyle;rounded=0;orthogonalLoop=1;jettySize=auto;html=1;fontColor=#000000;" edge="1" parent="1" source="xxYR3Yal_5X2FMV1pGKi-217" target="xxYR3Yal_5X2FMV1pGKi-12">
          <mxGeometry relative="1" as="geometry">
            <Array as="points">
              <mxPoint x="238" y="660" />
              <mxPoint x="335" y="660" />
            </Array>
          </mxGeometry>
        </mxCell>
        <mxCell id="xxYR3Yal_5X2FMV1pGKi-217" value="更新 (lc 和 tair)" style="rounded=1;whiteSpace=wrap;html=1;" vertex="1" parent="1">
          <mxGeometry x="208" y="699.5" width="59" height="30.5" as="geometry" />
        </mxCell>
        <mxCell id="xxYR3Yal_5X2FMV1pGKi-218" value="lc 命中" style="strokeWidth=2;html=1;shape=mxgraph.flowchart.decision;whiteSpace=wrap;fontColor=#000000;" vertex="1" parent="1">
          <mxGeometry x="371.5" y="699" width="85" height="31" as="geometry" />
        </mxCell>
        <mxCell id="xxYR3Yal_5X2FMV1pGKi-219" value="" style="endArrow=classic;html=1;rounded=0;fontColor=#000000;entryX=1;entryY=0.5;entryDx=0;entryDy=0;exitX=0;exitY=0.5;exitDx=0;exitDy=0;exitPerimeter=0;" edge="1" parent="1" source="xxYR3Yal_5X2FMV1pGKi-218" target="xxYR3Yal_5X2FMV1pGKi-217">
          <mxGeometry width="50" height="50" relative="1" as="geometry">
            <mxPoint x="369" y="700" as="sourcePoint" />
            <mxPoint x="419" y="650" as="targetPoint" />
          </mxGeometry>
        </mxCell>
        <mxCell id="xxYR3Yal_5X2FMV1pGKi-220" value="否" style="edgeLabel;html=1;align=center;verticalAlign=middle;resizable=0;points=[];fontColor=#000000;" vertex="1" connectable="0" parent="xxYR3Yal_5X2FMV1pGKi-219">
          <mxGeometry x="-0.2228" y="-1" relative="1" as="geometry">
            <mxPoint x="-1" as="offset" />
          </mxGeometry>
        </mxCell>
        <mxCell id="xxYR3Yal_5X2FMV1pGKi-226" value="" style="edgeStyle=orthogonalEdgeStyle;rounded=0;orthogonalLoop=1;jettySize=auto;html=1;fontColor=#000000;exitX=0;exitY=0.623;exitDx=0;exitDy=0;exitPerimeter=0;" edge="1" parent="1" source="xxYR3Yal_5X2FMV1pGKi-222" target="xxYR3Yal_5X2FMV1pGKi-12">
          <mxGeometry relative="1" as="geometry">
            <Array as="points">
              <mxPoint x="335" y="661" />
            </Array>
          </mxGeometry>
        </mxCell>
        <mxCell id="xxYR3Yal_5X2FMV1pGKi-222" value="更新lc" style="rounded=1;whiteSpace=wrap;html=1;" vertex="1" parent="1">
          <mxGeometry x="381.5" y="642" width="59" height="30.5" as="geometry" />
        </mxCell>
        <mxCell id="xxYR3Yal_5X2FMV1pGKi-225" value="是" style="endArrow=classic;html=1;rounded=0;fontColor=#000000;entryX=0.5;entryY=1;entryDx=0;entryDy=0;exitX=0.5;exitY=0;exitDx=0;exitDy=0;exitPerimeter=0;" edge="1" parent="1" source="xxYR3Yal_5X2FMV1pGKi-218" target="xxYR3Yal_5X2FMV1pGKi-222">
          <mxGeometry width="50" height="50" relative="1" as="geometry">
            <mxPoint x="414" y="685" as="sourcePoint" />
            <mxPoint x="464" y="635" as="targetPoint" />
          </mxGeometry>
        </mxCell>
        <mxCell id="xxYR3Yal_5X2FMV1pGKi-227" value="request" style="rounded=1;whiteSpace=wrap;html=1;fontColor=#000000;" vertex="1" parent="1">
          <mxGeometry x="473" y="2438" width="93" height="37" as="geometry" />
        </mxCell>
        <mxCell id="xxYR3Yal_5X2FMV1pGKi-230" value="计算令牌桶当前token数量&amp;nbsp; =&amp;nbsp; min(capacity, (当前时间 - 上次访问时间) * rate)&amp;nbsp;" style="rounded=1;whiteSpace=wrap;html=1;fontColor=#000000;" vertex="1" parent="1">
          <mxGeometry x="455.5" y="2594" width="128" height="74" as="geometry" />
        </mxCell>
        <mxCell id="xxYR3Yal_5X2FMV1pGKi-231" value="计算令牌桶剩余数量 = 当前数量 - 请求数量&lt;br&gt;更新上次访问时间 = 当前时间" style="rounded=1;whiteSpace=wrap;html=1;fontColor=#000000;" vertex="1" parent="1">
          <mxGeometry x="459" y="2786" width="121" height="74" as="geometry" />
        </mxCell>
        <mxCell id="xxYR3Yal_5X2FMV1pGKi-234" value="" style="edgeStyle=orthogonalEdgeStyle;rounded=0;orthogonalLoop=1;jettySize=auto;html=1;fontColor=#000000;" edge="1" parent="1" source="xxYR3Yal_5X2FMV1pGKi-233" target="xxYR3Yal_5X2FMV1pGKi-230">
          <mxGeometry relative="1" as="geometry" />
        </mxCell>
        <mxCell id="xxYR3Yal_5X2FMV1pGKi-235" value="否" style="edgeLabel;html=1;align=center;verticalAlign=middle;resizable=0;points=[];fontColor=#000000;" vertex="1" connectable="0" parent="xxYR3Yal_5X2FMV1pGKi-234">
          <mxGeometry x="-0.1587" relative="1" as="geometry">
            <mxPoint as="offset" />
          </mxGeometry>
        </mxCell>
        <mxCell id="xxYR3Yal_5X2FMV1pGKi-233" value="获取的token数是否大于容量" style="rhombus;whiteSpace=wrap;html=1;fontColor=#000000;" vertex="1" parent="1">
          <mxGeometry x="437.5" y="2511" width="162.5" height="40" as="geometry" />
        </mxCell>
        <mxCell id="xxYR3Yal_5X2FMV1pGKi-236" value="" style="endArrow=classic;html=1;rounded=0;fontColor=#000000;entryX=0.5;entryY=0;entryDx=0;entryDy=0;" edge="1" parent="1" target="xxYR3Yal_5X2FMV1pGKi-233">
          <mxGeometry width="50" height="50" relative="1" as="geometry">
            <mxPoint x="519" y="2475" as="sourcePoint" />
            <mxPoint x="569" y="2425" as="targetPoint" />
          </mxGeometry>
        </mxCell>
        <mxCell id="xxYR3Yal_5X2FMV1pGKi-240" value="" style="edgeStyle=orthogonalEdgeStyle;rounded=0;orthogonalLoop=1;jettySize=auto;html=1;fontColor=#000000;" edge="1" parent="1" source="xxYR3Yal_5X2FMV1pGKi-237" target="xxYR3Yal_5X2FMV1pGKi-239">
          <mxGeometry relative="1" as="geometry" />
        </mxCell>
        <mxCell id="xxYR3Yal_5X2FMV1pGKi-241" value="是" style="edgeLabel;html=1;align=center;verticalAlign=middle;resizable=0;points=[];fontColor=#000000;" vertex="1" connectable="0" parent="xxYR3Yal_5X2FMV1pGKi-240">
          <mxGeometry x="-0.1451" y="1" relative="1" as="geometry">
            <mxPoint as="offset" />
          </mxGeometry>
        </mxCell>
        <mxCell id="xxYR3Yal_5X2FMV1pGKi-242" value="" style="edgeStyle=orthogonalEdgeStyle;rounded=0;orthogonalLoop=1;jettySize=auto;html=1;fontColor=#000000;" edge="1" parent="1" source="xxYR3Yal_5X2FMV1pGKi-237" target="xxYR3Yal_5X2FMV1pGKi-231">
          <mxGeometry relative="1" as="geometry" />
        </mxCell>
        <mxCell id="xxYR3Yal_5X2FMV1pGKi-244" value="否" style="edgeLabel;html=1;align=center;verticalAlign=middle;resizable=0;points=[];fontColor=#000000;" vertex="1" connectable="0" parent="xxYR3Yal_5X2FMV1pGKi-242">
          <mxGeometry x="-0.4846" y="1" relative="1" as="geometry">
            <mxPoint y="-1" as="offset" />
          </mxGeometry>
        </mxCell>
        <mxCell id="xxYR3Yal_5X2FMV1pGKi-237" value="获取的token数是否大于令牌桶数量" style="rhombus;whiteSpace=wrap;html=1;fontColor=#000000;" vertex="1" parent="1">
          <mxGeometry x="422" y="2713" width="195" height="37" as="geometry" />
        </mxCell>
        <mxCell id="xxYR3Yal_5X2FMV1pGKi-238" value="" style="endArrow=classic;html=1;rounded=0;fontColor=#000000;entryX=0.5;entryY=0;entryDx=0;entryDy=0;" edge="1" parent="1" target="xxYR3Yal_5X2FMV1pGKi-237">
          <mxGeometry width="50" height="50" relative="1" as="geometry">
            <mxPoint x="518" y="2669" as="sourcePoint" />
            <mxPoint x="568" y="2619" as="targetPoint" />
          </mxGeometry>
        </mxCell>
        <mxCell id="xxYR3Yal_5X2FMV1pGKi-239" value="结束" style="rounded=1;whiteSpace=wrap;html=1;fontColor=#000000;" vertex="1" parent="1">
          <mxGeometry x="249" y="2711" width="88" height="41" as="geometry" />
        </mxCell>
        <mxCell id="xxYR3Yal_5X2FMV1pGKi-243" value="" style="endArrow=classic;html=1;rounded=0;fontColor=#000000;entryX=0.5;entryY=1;entryDx=0;entryDy=0;" edge="1" parent="1" target="xxYR3Yal_5X2FMV1pGKi-239">
          <mxGeometry width="50" height="50" relative="1" as="geometry">
            <mxPoint x="456.5" y="2827" as="sourcePoint" />
            <mxPoint x="506.5" y="2777" as="targetPoint" />
            <Array as="points">
              <mxPoint x="293" y="2827" />
            </Array>
          </mxGeometry>
        </mxCell>
        <mxCell id="xxYR3Yal_5X2FMV1pGKi-245" value="" style="endArrow=classic;html=1;rounded=0;fontColor=#000000;entryX=0.5;entryY=0;entryDx=0;entryDy=0;" edge="1" parent="1" target="xxYR3Yal_5X2FMV1pGKi-239">
          <mxGeometry width="50" height="50" relative="1" as="geometry">
            <mxPoint x="439" y="2534" as="sourcePoint" />
            <mxPoint x="489" y="2484" as="targetPoint" />
            <Array as="points">
              <mxPoint x="293" y="2534" />
            </Array>
          </mxGeometry>
        </mxCell>
        <mxCell id="xxYR3Yal_5X2FMV1pGKi-246" value="是" style="edgeLabel;html=1;align=center;verticalAlign=middle;resizable=0;points=[];fontColor=#000000;" vertex="1" connectable="0" parent="xxYR3Yal_5X2FMV1pGKi-245">
          <mxGeometry x="0.1971" y="-2" relative="1" as="geometry">
            <mxPoint as="offset" />
          </mxGeometry>
        </mxCell>
        <mxCell id="xxYR3Yal_5X2FMV1pGKi-248" value="TokenBucket" style="swimlane;fontStyle=1;align=center;verticalAlign=top;childLayout=stackLayout;horizontal=1;startSize=26;horizontalStack=0;resizeParent=1;resizeParentMax=0;resizeLast=0;collapsible=1;marginBottom=0;fontColor=#000000;" vertex="1" parent="1">
          <mxGeometry x="486" y="1989" width="252" height="164" as="geometry" />
        </mxCell>
        <mxCell id="xxYR3Yal_5X2FMV1pGKi-254" value="+ tokens" style="text;strokeColor=none;fillColor=none;align=left;verticalAlign=top;spacingLeft=4;spacingRight=4;overflow=hidden;rotatable=0;points=[[0,0.5],[1,0.5]];portConstraint=eastwest;fontColor=#000000;" vertex="1" parent="xxYR3Yal_5X2FMV1pGKi-248">
          <mxGeometry y="26" width="252" height="26" as="geometry" />
        </mxCell>
        <mxCell id="xxYR3Yal_5X2FMV1pGKi-249" value="+ uint64_t last_access_time" style="text;strokeColor=none;fillColor=none;align=left;verticalAlign=top;spacingLeft=4;spacingRight=4;overflow=hidden;rotatable=0;points=[[0,0.5],[1,0.5]];portConstraint=eastwest;fontColor=#000000;" vertex="1" parent="xxYR3Yal_5X2FMV1pGKi-248">
          <mxGeometry y="52" width="252" height="26" as="geometry" />
        </mxCell>
        <mxCell id="xxYR3Yal_5X2FMV1pGKi-252" value="+ size_t rate" style="text;strokeColor=none;fillColor=none;align=left;verticalAlign=top;spacingLeft=4;spacingRight=4;overflow=hidden;rotatable=0;points=[[0,0.5],[1,0.5]];portConstraint=eastwest;fontColor=#000000;" vertex="1" parent="xxYR3Yal_5X2FMV1pGKi-248">
          <mxGeometry y="78" width="252" height="26" as="geometry" />
        </mxCell>
        <mxCell id="xxYR3Yal_5X2FMV1pGKi-253" value="+ size_t capacity" style="text;strokeColor=none;fillColor=none;align=left;verticalAlign=top;spacingLeft=4;spacingRight=4;overflow=hidden;rotatable=0;points=[[0,0.5],[1,0.5]];portConstraint=eastwest;fontColor=#000000;" vertex="1" parent="xxYR3Yal_5X2FMV1pGKi-248">
          <mxGeometry y="104" width="252" height="26" as="geometry" />
        </mxCell>
        <mxCell id="xxYR3Yal_5X2FMV1pGKi-250" value="" style="line;strokeWidth=1;fillColor=none;align=left;verticalAlign=middle;spacingTop=-1;spacingLeft=3;spacingRight=3;rotatable=0;labelPosition=right;points=[];portConstraint=eastwest;fontColor=#000000;" vertex="1" parent="xxYR3Yal_5X2FMV1pGKi-248">
          <mxGeometry y="130" width="252" height="8" as="geometry" />
        </mxCell>
        <mxCell id="xxYR3Yal_5X2FMV1pGKi-251" value="+ bool consume(size_t require_tokens)" style="text;strokeColor=none;fillColor=none;align=left;verticalAlign=top;spacingLeft=4;spacingRight=4;overflow=hidden;rotatable=0;points=[[0,0.5],[1,0.5]];portConstraint=eastwest;fontColor=#000000;" vertex="1" parent="xxYR3Yal_5X2FMV1pGKi-248">
          <mxGeometry y="138" width="252" height="26" as="geometry" />
        </mxCell>
        <mxCell id="xxYR3Yal_5X2FMV1pGKi-256" value="" style="edgeStyle=orthogonalEdgeStyle;rounded=0;orthogonalLoop=1;jettySize=auto;html=1;" edge="1" parent="1" source="xxYR3Yal_5X2FMV1pGKi-260">
          <mxGeometry relative="1" as="geometry">
            <mxPoint x="1643" y="340" as="targetPoint" />
          </mxGeometry>
        </mxCell>
        <mxCell id="xxYR3Yal_5X2FMV1pGKi-257" value="命中且key未过期且value不为空" style="edgeLabel;html=1;align=center;verticalAlign=middle;resizable=0;points=[];" vertex="1" connectable="0" parent="xxYR3Yal_5X2FMV1pGKi-256">
          <mxGeometry x="-0.1294" y="-1" relative="1" as="geometry">
            <mxPoint as="offset" />
          </mxGeometry>
        </mxCell>
        <mxCell id="xxYR3Yal_5X2FMV1pGKi-258" value="" style="edgeStyle=orthogonalEdgeStyle;rounded=0;orthogonalLoop=1;jettySize=auto;html=1;entryX=0;entryY=0.5;entryDx=0;entryDy=0;" edge="1" parent="1" source="xxYR3Yal_5X2FMV1pGKi-260" target="xxYR3Yal_5X2FMV1pGKi-285">
          <mxGeometry relative="1" as="geometry">
            <mxPoint x="1803" y="108.25" as="targetPoint" />
          </mxGeometry>
        </mxCell>
        <mxCell id="xxYR3Yal_5X2FMV1pGKi-259" value="未命中或key过期或value为空" style="edgeLabel;html=1;align=center;verticalAlign=middle;resizable=0;points=[];" vertex="1" connectable="0" parent="xxYR3Yal_5X2FMV1pGKi-258">
          <mxGeometry x="0.1143" y="3" relative="1" as="geometry">
            <mxPoint y="1" as="offset" />
          </mxGeometry>
        </mxCell>
        <mxCell id="xxYR3Yal_5X2FMV1pGKi-260" value="&lt;span style=&quot;font-size: 11px ; background-color: rgb(255 , 255 , 255)&quot;&gt;local cache&lt;/span&gt;" style="rhombus;whiteSpace=wrap;html=1;" vertex="1" parent="1">
          <mxGeometry x="1553" y="79.5" width="180" height="70" as="geometry" />
        </mxCell>
        <mxCell id="xxYR3Yal_5X2FMV1pGKi-261" value="" style="edgeStyle=orthogonalEdgeStyle;rounded=0;orthogonalLoop=1;jettySize=auto;html=1;" edge="1" parent="1" source="xxYR3Yal_5X2FMV1pGKi-263">
          <mxGeometry relative="1" as="geometry">
            <mxPoint x="1643" y="29.25" as="targetPoint" />
          </mxGeometry>
        </mxCell>
        <mxCell id="xxYR3Yal_5X2FMV1pGKi-262" value="读" style="edgeLabel;html=1;align=center;verticalAlign=middle;resizable=0;points=[];" vertex="1" connectable="0" parent="xxYR3Yal_5X2FMV1pGKi-261">
          <mxGeometry x="-0.4182" relative="1" as="geometry">
            <mxPoint as="offset" />
          </mxGeometry>
        </mxCell>
        <mxCell id="xxYR3Yal_5X2FMV1pGKi-263" value="request" style="rounded=1;whiteSpace=wrap;html=1;" vertex="1" parent="1">
          <mxGeometry x="1598" y="-93.75" width="90" height="45" as="geometry" />
        </mxCell>
        <mxCell id="xxYR3Yal_5X2FMV1pGKi-264" value="" style="edgeStyle=orthogonalEdgeStyle;rounded=0;orthogonalLoop=1;jettySize=auto;html=1;" edge="1" parent="1" source="xxYR3Yal_5X2FMV1pGKi-266" target="xxYR3Yal_5X2FMV1pGKi-279">
          <mxGeometry relative="1" as="geometry" />
        </mxCell>
        <mxCell id="xxYR3Yal_5X2FMV1pGKi-265" value="结果" style="edgeLabel;html=1;align=center;verticalAlign=middle;resizable=0;points=[];" vertex="1" connectable="0" parent="xxYR3Yal_5X2FMV1pGKi-264">
          <mxGeometry x="0.1" y="1" relative="1" as="geometry">
            <mxPoint as="offset" />
          </mxGeometry>
        </mxCell>
        <mxCell id="xxYR3Yal_5X2FMV1pGKi-266" value="opendi前" style="rounded=1;whiteSpace=wrap;html=1;" vertex="1" parent="1">
          <mxGeometry x="1343" y="318.25" width="90" height="45" as="geometry" />
        </mxCell>
        <mxCell id="xxYR3Yal_5X2FMV1pGKi-279" value="response" style="rounded=1;whiteSpace=wrap;html=1;" vertex="1" parent="1">
          <mxGeometry x="1173" y="318.25" width="90" height="45" as="geometry" />
        </mxCell>
        <mxCell id="xxYR3Yal_5X2FMV1pGKi-280" value="" style="endArrow=classic;html=1;rounded=0;entryX=1;entryY=0.5;entryDx=0;entryDy=0;exitX=0.5;exitY=1;exitDx=0;exitDy=0;" edge="1" parent="1" source="xxYR3Yal_5X2FMV1pGKi-285" target="xxYR3Yal_5X2FMV1pGKi-266">
          <mxGeometry width="50" height="50" relative="1" as="geometry">
            <mxPoint x="1893" y="143.25" as="sourcePoint" />
            <mxPoint x="1733" y="225.75" as="targetPoint" />
            <Array as="points">
              <mxPoint x="1966" y="341" />
            </Array>
          </mxGeometry>
        </mxCell>
        <mxCell id="xxYR3Yal_5X2FMV1pGKi-281" value="命中且key未过期且value不为空" style="edgeLabel;html=1;align=center;verticalAlign=middle;resizable=0;points=[];" vertex="1" connectable="0" parent="xxYR3Yal_5X2FMV1pGKi-280">
          <mxGeometry x="-0.7263" y="-1" relative="1" as="geometry">
            <mxPoint as="offset" />
          </mxGeometry>
        </mxCell>
        <mxCell id="xxYR3Yal_5X2FMV1pGKi-282" value="" style="edgeStyle=orthogonalEdgeStyle;rounded=0;orthogonalLoop=1;jettySize=auto;html=1;entryX=0.5;entryY=1;entryDx=0;entryDy=0;" edge="1" parent="1" source="xxYR3Yal_5X2FMV1pGKi-284" target="xxYR3Yal_5X2FMV1pGKi-305">
          <mxGeometry relative="1" as="geometry">
            <mxPoint x="1509.4999999999995" y="457.8333333333335" as="targetPoint" />
          </mxGeometry>
        </mxCell>
        <mxCell id="xxYR3Yal_5X2FMV1pGKi-283" value="成功" style="edgeLabel;html=1;align=center;verticalAlign=middle;resizable=0;points=[];" vertex="1" connectable="0" parent="xxYR3Yal_5X2FMV1pGKi-282">
          <mxGeometry x="-0.2" y="-3" relative="1" as="geometry">
            <mxPoint as="offset" />
          </mxGeometry>
        </mxCell>
        <mxCell id="xxYR3Yal_5X2FMV1pGKi-284" value="请求下游" style="rhombus;whiteSpace=wrap;html=1;" vertex="1" parent="1">
          <mxGeometry x="1558" y="428" width="170" height="60" as="geometry" />
        </mxCell>
        <mxCell id="xxYR3Yal_5X2FMV1pGKi-285" value="tair" style="rhombus;whiteSpace=wrap;html=1;" vertex="1" parent="1">
          <mxGeometry x="1905" y="75.75" width="120" height="77.5" as="geometry" />
        </mxCell>
        <mxCell id="xxYR3Yal_5X2FMV1pGKi-286" value="" style="endArrow=classic;html=1;rounded=0;entryX=1;entryY=0.5;entryDx=0;entryDy=0;" edge="1" parent="1" target="xxYR3Yal_5X2FMV1pGKi-284">
          <mxGeometry width="50" height="50" relative="1" as="geometry">
            <mxPoint x="2028" y="115" as="sourcePoint" />
            <mxPoint x="1788" y="342.4999999999998" as="targetPoint" />
            <Array as="points">
              <mxPoint x="2123" y="115" />
              <mxPoint x="2123" y="458" />
            </Array>
          </mxGeometry>
        </mxCell>
        <mxCell id="xxYR3Yal_5X2FMV1pGKi-316" value="key 不存在或value为空或过期" style="edgeLabel;html=1;align=center;verticalAlign=middle;resizable=0;points=[];fontColor=#000000;" vertex="1" connectable="0" parent="xxYR3Yal_5X2FMV1pGKi-286">
          <mxGeometry x="-0.1753" y="-7" relative="1" as="geometry">
            <mxPoint as="offset" />
          </mxGeometry>
        </mxCell>
        <mxCell id="xxYR3Yal_5X2FMV1pGKi-288" value="" style="endArrow=classic;html=1;rounded=0;entryX=0.5;entryY=1;entryDx=0;entryDy=0;exitX=0.5;exitY=0.983;exitDx=0;exitDy=0;exitPerimeter=0;" edge="1" parent="1" source="xxYR3Yal_5X2FMV1pGKi-284" target="xxYR3Yal_5X2FMV1pGKi-279">
          <mxGeometry width="50" height="50" relative="1" as="geometry">
            <mxPoint x="1643" y="491.25" as="sourcePoint" />
            <mxPoint x="1693" y="423.25" as="targetPoint" />
            <Array as="points">
              <mxPoint x="1643" y="512.25" />
              <mxPoint x="1218" y="512.25" />
            </Array>
          </mxGeometry>
        </mxCell>
        <mxCell id="xxYR3Yal_5X2FMV1pGKi-289" value="失败" style="edgeLabel;html=1;align=center;verticalAlign=middle;resizable=0;points=[];" vertex="1" connectable="0" parent="xxYR3Yal_5X2FMV1pGKi-288">
          <mxGeometry x="-0.0991" relative="1" as="geometry">
            <mxPoint as="offset" />
          </mxGeometry>
        </mxCell>
        <mxCell id="xxYR3Yal_5X2FMV1pGKi-297" value="" style="edgeStyle=orthogonalEdgeStyle;rounded=0;orthogonalLoop=1;jettySize=auto;html=1;" edge="1" parent="1" source="xxYR3Yal_5X2FMV1pGKi-301" target="xxYR3Yal_5X2FMV1pGKi-302">
          <mxGeometry relative="1" as="geometry" />
        </mxCell>
        <mxCell id="xxYR3Yal_5X2FMV1pGKi-298" value="不存在" style="edgeLabel;html=1;align=center;verticalAlign=middle;resizable=0;points=[];" vertex="1" connectable="0" parent="xxYR3Yal_5X2FMV1pGKi-297">
          <mxGeometry x="0.0233" y="-4" relative="1" as="geometry">
            <mxPoint as="offset" />
          </mxGeometry>
        </mxCell>
        <mxCell id="xxYR3Yal_5X2FMV1pGKi-299" value="" style="edgeStyle=orthogonalEdgeStyle;rounded=0;orthogonalLoop=1;jettySize=auto;html=1;" edge="1" parent="1" source="xxYR3Yal_5X2FMV1pGKi-301" target="xxYR3Yal_5X2FMV1pGKi-260">
          <mxGeometry relative="1" as="geometry" />
        </mxCell>
        <mxCell id="xxYR3Yal_5X2FMV1pGKi-300" value="存在" style="edgeLabel;html=1;align=center;verticalAlign=middle;resizable=0;points=[];" vertex="1" connectable="0" parent="xxYR3Yal_5X2FMV1pGKi-299">
          <mxGeometry x="-0.3672" y="-2" relative="1" as="geometry">
            <mxPoint as="offset" />
          </mxGeometry>
        </mxCell>
        <mxCell id="xxYR3Yal_5X2FMV1pGKi-301" value="meta key" style="rhombus;whiteSpace=wrap;html=1;" vertex="1" parent="1">
          <mxGeometry x="1587" y="-4.75" width="112" height="40" as="geometry" />
        </mxCell>
        <mxCell id="xxYR3Yal_5X2FMV1pGKi-302" value="请求下游" style="rounded=1;whiteSpace=wrap;html=1;" vertex="1" parent="1">
          <mxGeometry x="1422" y="-7.25" width="90" height="45" as="geometry" />
        </mxCell>
        <mxCell id="xxYR3Yal_5X2FMV1pGKi-303" value="" style="endArrow=classic;html=1;rounded=0;entryX=0.25;entryY=0;entryDx=0;entryDy=0;" edge="1" parent="1" target="xxYR3Yal_5X2FMV1pGKi-266">
          <mxGeometry width="50" height="50" relative="1" as="geometry">
            <mxPoint x="1420" y="15.25" as="sourcePoint" />
            <mxPoint x="1353" y="15.25" as="targetPoint" />
            <Array as="points">
              <mxPoint x="1366" y="15.25" />
            </Array>
          </mxGeometry>
        </mxCell>
        <mxCell id="xxYR3Yal_5X2FMV1pGKi-305" value="更新 (lc 和 tair)" style="rounded=1;whiteSpace=wrap;html=1;" vertex="1" parent="1">
          <mxGeometry x="1358.5" y="397.5" width="59" height="30.5" as="geometry" />
        </mxCell>
        <mxCell id="xxYR3Yal_5X2FMV1pGKi-315" value="" style="endArrow=classic;html=1;rounded=0;fontColor=#000000;" edge="1" parent="1" target="xxYR3Yal_5X2FMV1pGKi-266">
          <mxGeometry width="50" height="50" relative="1" as="geometry">
            <mxPoint x="1390" y="396" as="sourcePoint" />
            <mxPoint x="1440" y="346.25" as="targetPoint" />
          </mxGeometry>
        </mxCell>
      </root>
    </mxGraphModel>
  </diagram>
</mxfile>
